<?xml version="1.0" standalone="no"?>
<!DOCTYPE svg PUBLIC "-//W3C//DTD SVG 20010904//EN"
 "http://www.w3.org/TR/2001/REC-SVG-20010904/DTD/svg10.dtd">
<svg version="1.0" xmlns="http://www.w3.org/2000/svg"
 width="162.000000pt" height="162.000000pt" viewBox="0 0 162.000000 162.000000"
 preserveAspectRatio="xMidYMid meet">
<metadata>
Created by potrace 1.14, written by Peter Selinger 2001-2017
</metadata>
<g transform="translate(0.000000,162.000000) scale(0.100000,-0.100000)"
fill="#000000" stroke="none">
<path d="M965 1290 l-320 -320 -315 315 c-173 173 -318 315 -320 315 -3 0 -6
-79 -5 -175 l0 -175 322 -322 323 -323 168 168 c92 92 169 167 172 167 3 0 4
-43 3 -95 -2 -52 -1 -95 1 -95 2 0 70 66 150 146 l146 147 0 283 c0 156 -1
284 -3 284 -1 0 -146 -144 -322 -320z"/>
<path d="M1519 1177 c-78 -74 -260 -246 -364 -342 -22 -21 -68 -64 -101 -96
-34 -33 -66 -59 -72 -59 -5 0 -24 18 -42 40 -18 22 -35 40 -39 40 -3 0 -25
-17 -47 -38 -114 -102 -154 -144 -147 -155 3 -7 36 -43 73 -82 37 -38 93 -98
125 -132 32 -35 63 -63 67 -63 8 0 56 44 242 222 50 47 93 85 95 83 2 -2 3
-132 2 -289 0 -218 3 -286 12 -287 68 -5 272 -2 280 3 9 5 12 168 12 623 0
338 -2 615 -5 615 -3 0 -44 -38 -91 -83z"/>
<path d="M5 755 c0 -398 0 -405 20 -406 31 -1 237 -1 263 0 l22 1 -1 253 -1
254 -151 151 -152 152 0 -405z"/>
<path d="M345 420 c0 -313 3 -400 12 -401 17 -1 258 -1 278 0 14 1 16 32 14
250 l-2 249 -151 151 -151 151 0 -400z"/>
</g>
</svg>
